<svg xmlns="http://www.w3.org/2000/svg" viewBox="0 0 350 350"><g id="freepik--pallete-1--inject-2"><rect x="143.67" y="109.47" width="186" height="61.43" rx="8.43" transform="translate(-2.82 275.51) rotate(-60.26)" style="fill:#fafafa"></rect><path d="M209,232.21s.37.21,1.14.5a8.37,8.37,0,0,0,8.83-1.8,12.09,12.09,0,0,0,2.13-3.07l2.13-3.75,25.52-44.83,37.89-66.46q5.35-9.37,11-19.2l5.67-9.92c.46-.83,1-1.67,1.4-2.51a8.11,8.11,0,0,0-.52-8.09,8,8,0,0,0-2-2.06c-.76-.54-1.66-1-2.51-1.5l-5.16-3-10.46-6-21.37-12.2A8.19,8.19,0,0,0,252,50.72c-2.09,3.48-4.07,7.08-6.09,10.57L234.06,82.05l-22.43,39.22-38,66.41c-1.35,2.36-2.67,4.67-4,6.91l-1.9,3.33a9.54,9.54,0,0,0-1.39,3.38,8.27,8.27,0,0,0,1.62,6.6c1.39,1.83,3.58,2.66,5.4,3.8l19.25,11,12.15,7,3.16,1.83,1.06.64s-.37-.19-1.09-.59l-3.18-1.79-12.2-6.91-19.29-11-2.87-1.63a9,9,0,0,1-2.63-2.23,8.58,8.58,0,0,1-1.71-6.85,9.93,9.93,0,0,1,1.42-3.49c.63-1.09,1.26-2.2,1.9-3.33l3.94-6.92L211.22,121l22.4-39.24L245.47,61c2-3.52,4-7.06,6.11-10.62A8.72,8.72,0,0,1,263,47.94l21.37,12.21,10.45,6L300,69.07c.85.5,1.72,1,2.56,1.54a8.3,8.3,0,0,1,2.07,2.19,8.62,8.62,0,0,1,.55,8.6c-.44.89-.95,1.69-1.42,2.53l-5.66,9.92q-5.61,9.81-11,19.19l-38,66.4-25.66,44.75-2.15,3.74a12.45,12.45,0,0,1-2.19,3.1,8.45,8.45,0,0,1-5.37,2.32,8.22,8.22,0,0,1-3.58-.59,5.87,5.87,0,0,1-.85-.4Z" style="fill:#263238"></path><rect x="240.79" y="67.75" width="56.5" height="28.95" transform="translate(76.22 -122.62) rotate(29.74)" style="fill:#92E3A9"></rect><rect x="220.45" y="103.35" width="56.5" height="28.95" transform="translate(91.2 -107.84) rotate(29.74)" style="fill:#92E3A9"></rect><rect x="200.11" y="138.96" width="56.5" height="28.95" transform="translate(106.18 -93.07) rotate(29.74)" style="fill:#92E3A9"></rect><rect x="179.77" y="174.56" width="56.5" height="28.95" transform="translate(121.16 -78.29) rotate(29.74)" style="fill:#92E3A9"></rect><g style="opacity:0.5"><rect x="240.79" y="67.75" width="56.5" height="28.95" transform="translate(76.22 -122.62) rotate(29.74)"></rect></g><g style="opacity:0.6000000000000001"><rect x="220.45" y="103.35" width="56.5" height="28.95" transform="translate(91.2 -107.84) rotate(29.74)"></rect></g><g style="opacity:0.7000000000000001"><rect x="200.11" y="138.96" width="56.5" height="28.95" transform="translate(106.18 -93.07) rotate(29.74)"></rect></g><g style="opacity:0.8"><rect x="179.77" y="174.56" width="56.5" height="28.95" transform="translate(121.16 -78.29) rotate(29.74)"></rect></g><rect x="104.09" y="101.2" width="186.5" height="61.43" rx="8.94" transform="translate(33.56 303.73) rotate(-80.13)" style="fill:#fafafa"></rect><path d="M202.81,227.52l.32,0a7.69,7.69,0,0,0,.92.07,8.49,8.49,0,0,0,3.54-.64,8.89,8.89,0,0,0,4.38-3.75,9.64,9.64,0,0,0,1.19-3.52c.23-1.33.47-2.75.72-4.25,2.07-12,5.06-29.32,8.75-50.74s8.12-46.92,13-75.24q1.84-10.62,3.77-21.75,1-5.55,1.95-11.23c.31-1.9.82-3.78.37-5.63a8.68,8.68,0,0,0-5.21-6.31,12.85,12.85,0,0,0-2.81-.7l-5.85-1L216,40.77l-24.2-4.2a8.7,8.7,0,0,0-9.62,5.48,15.54,15.54,0,0,0-.67,2.94c-.17,1-.35,2-.52,3L180,54q-2.07,11.94-4.09,23.5c-2.68,15.41-5.27,30.28-7.74,44.44-5,28.31-9.4,53.81-13.15,75.23-.46,2.67-.92,5.29-1.37,7.83-.22,1.28-.44,2.53-.66,3.77a10.78,10.78,0,0,0-.23,3.65,8.81,8.81,0,0,0,6.45,7.33c1.06.26,2.17.4,3.23.6l21.81,3.84L198,226.63l3.59.65,1.21.24-1.22-.19-3.59-.6-13.8-2.35-21.83-3.75c-1.07-.2-2.14-.33-3.25-.6a9.11,9.11,0,0,1-6.7-7.58,10.78,10.78,0,0,1,.22-3.75c.21-1.24.43-2.49.65-3.77.44-2.54.89-5.16,1.35-7.84,3.71-21.42,8.13-46.92,13-75.25,2.46-14.16,5-29,7.72-44.43q2-11.56,4.08-23.51l1.05-6c.17-1,.34-2,.52-3a15.79,15.79,0,0,1,.7-3,9.26,9.26,0,0,1,4-4.74,9.41,9.41,0,0,1,6.16-1.08l24.2,4.21L228,42.33l5.85,1a13,13,0,0,1,2.91.72,9.23,9.23,0,0,1,5.52,6.69,8.92,8.92,0,0,1,.11,3c-.13,1-.32,1.91-.48,2.86q-1,5.67-2,11.23Q238,78.93,236.13,89.55c-4.94,28.31-9.4,53.81-13.14,75.23s-6.8,38.73-8.91,50.71c-.26,1.5-.51,2.91-.74,4.24a9.75,9.75,0,0,1-1.24,3.57,8.94,8.94,0,0,1-4.47,3.77,8.35,8.35,0,0,1-3.58.59,7.06,7.06,0,0,1-.93-.09Z" style="fill:#263238"></path><rect x="180.53" y="51.68" width="56.5" height="28.95" transform="translate(14.43 -34.8) rotate(9.87)" style="fill:#92E3A9"></rect><rect x="173.51" y="92.07" width="56.5" height="28.95" transform="translate(21.24 -33) rotate(9.87)" style="fill:#92E3A9"></rect><rect x="166.48" y="132.47" width="56.5" height="28.95" transform="translate(28.06 -31.2) rotate(9.87)" style="fill:#92E3A9"></rect><rect x="159.45" y="172.86" width="56.5" height="28.95" transform="translate(34.88 -29.4) rotate(9.87)" style="fill:#92E3A9"></rect><g style="opacity:0.1"><rect x="180.53" y="51.68" width="56.5" height="28.95" transform="translate(14.43 -34.8) rotate(9.87)"></rect></g><g style="opacity:0.2"><rect x="173.51" y="92.07" width="56.5" height="28.95" transform="translate(21.24 -33) rotate(9.87)"></rect></g><g style="opacity:0.30000000000000004"><rect x="166.48" y="132.47" width="56.5" height="28.95" transform="translate(28.06 -31.2) rotate(9.87)"></rect></g><g style="opacity:0.4"><rect x="159.45" y="172.86" width="56.5" height="28.95" transform="translate(34.88 -29.4) rotate(9.87)"></rect></g><path d="M204.91,223.36l-41.76,10A9.24,9.24,0,0,1,152,226.57L112.76,63.19a9.24,9.24,0,0,1,6.82-11.14l41.77-10a9.24,9.24,0,0,1,11.14,6.82l39.25,163.39A9.23,9.23,0,0,1,204.91,223.36Z" style="fill:#fafafa"></path><path d="M204.91,223.36l.3-.1a6.06,6.06,0,0,0,.87-.3,8.64,8.64,0,0,0,3-2,9.21,9.21,0,0,0,2.69-5.11c.5-2.33-.52-4.94-1.17-7.89-2.86-11.81-7-28.89-12.09-50s-11.15-46.25-17.87-74.16L175.5,62.42q-1.32-5.47-2.66-11.07c-.48-1.86-.75-3.79-1.86-5.33a9,9,0,0,0-4.38-3.45,9.2,9.2,0,0,0-5.64-.19l-5.77,1.38-11.68,2.81L119.66,52.3a9,9,0,0,0-5,3.2,8.94,8.94,0,0,0-1.91,5.55,12,12,0,0,0,.45,3c.24,1,.48,2,.72,3q.7,3,1.41,5.91,2.84,11.78,5.57,23.17c3.64,15.2,7.16,29.85,10.51,43.82,6.68,27.92,12.7,53.07,17.76,74.19.63,2.64,1.25,5.21,1.85,7.73.3,1.25.59,2.49.89,3.72a11.08,11.08,0,0,0,1.21,3.44,9,9,0,0,0,5.38,4.2,8.88,8.88,0,0,0,3.31.3,26.28,26.28,0,0,0,3.2-.65l21.52-5.13,13.61-3.22,3.54-.82c.8-.19,1.21-.27,1.21-.27s-.4.12-1.19.32l-3.53.87-13.59,3.32-21.5,5.21a25.09,25.09,0,0,1-3.24.67,9.23,9.23,0,0,1-3.42-.3,9.39,9.39,0,0,1-5.59-4.33,11.87,11.87,0,0,1-1.26-3.54c-.29-1.22-.59-2.46-.89-3.71q-.91-3.76-1.87-7.73C143.74,193,137.69,167.89,131,140c-3.36-14-6.88-28.62-10.54-43.81Q117.68,84.79,114.85,73q-.7-2.94-1.42-5.91c-.24-1-.47-2-.71-3a12.68,12.68,0,0,1-.47-3.08,9.48,9.48,0,0,1,7.28-9.25l23.86-5.73,11.68-2.81,5.77-1.38a9.69,9.69,0,0,1,5.93.21,9.5,9.5,0,0,1,4.63,3.65,8.87,8.87,0,0,1,1.23,2.69c.27.94.46,1.87.7,2.8q1.33,5.6,2.65,11.08,2.63,10.95,5.14,21.44l17.77,74.18c5,21.12,9.11,38.21,11.93,50l1,4.18a9.29,9.29,0,0,1-2.63,8.94A8.78,8.78,0,0,1,206.1,223,7.56,7.56,0,0,1,204.91,223.36Z" style="fill:#263238"></path><rect x="118.41" y="58.33" width="56.5" height="28.95" transform="translate(-12.95 36.27) rotate(-13.51)" style="fill:#92E3A9"></rect><rect x="127.99" y="98.2" width="56.5" height="28.95" transform="translate(-22 39.61) rotate(-13.51)" style="fill:#92E3A9"></rect><rect x="137.56" y="138.07" width="56.5" height="28.95" transform="translate(-31.04 42.95) rotate(-13.51)" style="fill:#92E3A9"></rect><rect x="147.14" y="177.93" width="56.5" height="28.95" transform="translate(-40.09 46.29) rotate(-13.51)" style="fill:#92E3A9"></rect><g style="opacity:0.5"><rect x="118.41" y="58.33" width="56.5" height="28.95" transform="translate(-12.95 36.27) rotate(-13.51)" style="fill:#fff"></rect></g><g style="opacity:0.6000000000000001"><rect x="127.99" y="98.2" width="56.5" height="28.95" transform="translate(-22 39.61) rotate(-13.51)" style="fill:#fff"></rect></g><g style="opacity:0.7000000000000001"><rect x="137.56" y="138.07" width="56.5" height="28.95" transform="translate(-31.04 42.95) rotate(-13.51)" style="fill:#fff"></rect></g><g style="opacity:0.8"><rect x="147.14" y="177.93" width="56.5" height="28.95" transform="translate(-40.09 46.29) rotate(-13.51)" style="fill:#fff"></rect></g><rect x="101.76" y="67.29" width="61.43" height="186.5" rx="8.59" transform="matrix(0.81, -0.58, 0.58, 0.81, -68.78, 107.44)" style="fill:#fafafa"></rect><path d="M204.85,223.38s.35-.25.93-.83a8.29,8.29,0,0,0,2-3,8.49,8.49,0,0,0,.17-5.76,10.41,10.41,0,0,0-1.85-3.25l-2.52-3.49-30.14-41.83-44.65-62.07-12.9-17.94-6.66-9.27c-.57-.77-1.11-1.59-1.7-2.32a8.28,8.28,0,0,0-7.54-3,8.24,8.24,0,0,0-2.71.85,21.38,21.38,0,0,0-2.43,1.62L90,76.55l-9.77,7-20,14.35A8.39,8.39,0,0,0,57,102.83a8.17,8.17,0,0,0,.78,5.8,30,30,0,0,0,1.7,2.51l1.79,2.48,3.55,4.95L78.76,138l26.33,36.69,44.57,62.14,4.64,6.47c.75,1.06,1.5,2.09,2.23,3.12a9.8,9.8,0,0,0,2.48,2.68,8.47,8.47,0,0,0,6.66,1.39c2.27-.41,4-2,5.73-3.24l18-12.9,11.41-8.14,3-2.1c.67-.47,1-.7,1-.7s-.33.26-1,.74l-2.94,2.15-11.36,8.22-18,13-2.68,1.92a8.6,8.6,0,0,1-3.15,1.39,8.81,8.81,0,0,1-6.92-1.43,10.06,10.06,0,0,1-2.57-2.75L154,243.48,149.36,237,104.7,174.94C96.31,163.25,87.49,151,78.35,138.27l-13.94-19.4-3.55-4.94-1.79-2.49a28.18,28.18,0,0,1-1.74-2.57,8.73,8.73,0,0,1-.83-6.16A8.91,8.91,0,0,1,60,97.5l20-14.35,9.77-7,4.83-3.47A21.48,21.48,0,0,1,97,71a8.88,8.88,0,0,1,2.88-.91,9,9,0,0,1,5.77,1.24,8.55,8.55,0,0,1,2.23,2c.62.78,1.14,1.57,1.72,2.35l6.65,9.27,12.89,18L173.73,165l30,41.92,2.5,3.51c.4.54.77,1.07,1.11,1.62l.42.84c.11.28.23.56.32.84a8.64,8.64,0,0,1-.22,5.85,8.35,8.35,0,0,1-2.05,3,6.1,6.1,0,0,1-.71.6Z" style="fill:#263238"></path><rect x="65.29" y="91.86" width="56.5" height="28.95" transform="translate(-44.46 74.54) rotate(-35.69)" style="fill:#92E3A9"></rect><rect x="89.21" y="125.16" width="56.5" height="28.95" transform="translate(-59.4 94.74) rotate(-35.69)" style="fill:#92E3A9"></rect><rect x="113.13" y="158.46" width="56.5" height="28.95" transform="translate(-74.34 114.95) rotate(-35.69)" style="fill:#92E3A9"></rect><rect x="137.05" y="191.76" width="56.5" height="28.95" transform="translate(-89.27 135.16) rotate(-35.69)" style="fill:#92E3A9"></rect><g style="opacity:0.2"><rect x="89.21" y="125.16" width="56.5" height="28.95" transform="translate(-59.4 94.74) rotate(-35.69)" style="fill:#fff"></rect></g><g style="opacity:0.30000000000000004"><rect x="113.13" y="158.46" width="56.5" height="28.95" transform="translate(-74.34 114.95) rotate(-35.69)" style="fill:#fff"></rect></g><g style="opacity:0.4"><rect x="137.05" y="191.76" width="56.5" height="28.95" transform="translate(-89.27 135.16) rotate(-35.69)" style="fill:#fff"></rect></g><g style="opacity:0.1"><rect x="65.29" y="91.86" width="56.5" height="28.95" transform="translate(-44.46 74.54) rotate(-35.69)" style="fill:#fff"></rect></g><rect x="84.45" y="95.26" width="61.43" height="186.5" rx="8.41" transform="translate(-105.72 184.87) rotate(-57.63)" style="fill:#fafafa"></rect><path d="M59.53,116.9c-4.17-2.69-8.91-1.38-10.85,2.44l-24.33,38.4a8.09,8.09,0,0,0,2.5,11.18l96,60.86a3.45,3.45,0,0,0,4.77-1.06l29.3-46a3.47,3.47,0,0,0-1.06-4.79Z" style="fill:#92E3A9"></path><path d="M201.54,213a6.8,6.8,0,1,1-8.89-3.66A6.79,6.79,0,0,1,201.54,213Z" style="fill:#455a64"></path><path d="M201.54,213s-.26-.54-.91-1.39a6.84,6.84,0,0,0-3.69-2.38,6.59,6.59,0,0,0-6.1,1.56,6.44,6.44,0,0,0-1.92,3.28,6.51,6.51,0,0,0,3,7.14,6.43,6.43,0,0,0,3.68.95A6.6,6.6,0,0,0,201,219a6.72,6.72,0,0,0,.9-4.3c-.13-1.06-.39-1.61-.34-1.63a1.31,1.31,0,0,1,.2.39,5.5,5.5,0,0,1,.35,1.21,6.85,6.85,0,0,1-.79,4.52,7,7,0,0,1-2.19,2.36,7,7,0,0,1-3.51,1.16,6.9,6.9,0,0,1-4-1,7,7,0,0,1-3.21-7.7,6.9,6.9,0,0,1,2.09-3.51,7,7,0,0,1,3.3-1.68,6.91,6.91,0,0,1,3.22.11,6.78,6.78,0,0,1,3.76,2.62,5.36,5.36,0,0,1,.61,1.1C201.51,212.89,201.56,213,201.54,213Z" style="fill:#263238"></path><path d="M206,219.37s.23-.36.55-1.11a8.26,8.26,0,0,0,.66-3.55,8.18,8.18,0,0,0-2.28-5.29,15.83,15.83,0,0,0-3-2.19l-3.65-2.3-43.66-27.58L89.87,136.41l-18.7-11.85-9.66-6.11c-.81-.5-1.63-1.07-2.44-1.52A7.85,7.85,0,0,0,49,119.3c-.55.78-1.06,1.65-1.59,2.47l-3.19,5L37.72,137l-13.18,20.8a7.89,7.89,0,0,0,2.12,10.67L37,175l20.21,12.81,38.2,24.23,64.66,41,6.73,4.28,3.24,2.06a9,9,0,0,0,3.33,1.5,8,8,0,0,0,6.6-1.55,9.11,9.11,0,0,0,2.15-2.56l1.77-2.79c4.65-7.3,8.66-13.59,11.93-18.74s5.83-9.11,7.56-11.83l2-3.07c.44-.69.68-1,.68-1s-.21.36-.64,1.06-1.09,1.74-1.93,3.1c-1.72,2.73-4.23,6.73-7.48,11.88L184.11,254.2,182.35,257a9.3,9.3,0,0,1-2.22,2.64,8.28,8.28,0,0,1-6.86,1.64,9.61,9.61,0,0,1-3.44-1.54l-3.24-2.05-6.75-4.27L95.12,212.46l-38.21-24.2L36.7,175.46l-10.34-6.58a8.4,8.4,0,0,1-2.26-11.37l13.19-20.8,6.45-10.18,3.19-5c.54-.84,1-1.67,1.61-2.5a8.22,8.22,0,0,1,2.18-2.1,8.31,8.31,0,0,1,5.75-1.33,8.61,8.61,0,0,1,2.84.92c.88.48,1.65,1,2.47,1.53l9.66,6.12L90.13,136l64.65,41,43.57,27.72c1.29.81,2.5,1.59,3.64,2.32a14.84,14.84,0,0,1,3.06,2.24,8.22,8.22,0,0,1,2.27,5.39,8,8,0,0,1-.71,3.57,5.73,5.73,0,0,1-.43.82Z" style="fill:#263238"></path><path d="M139,233.23a3.74,3.74,0,0,1,1.51-6.7l.25,1.35a2.16,2.16,0,0,0-1.58,1,2.17,2.17,0,1,0,3.66,2.32,2.16,2.16,0,0,0,.23-1.87l1.32-.36a3.72,3.72,0,0,1-5.39,4.24Z" style="fill:#263238"></path><path d="M142.76,227.36a3.71,3.71,0,1,1,4.94-1.26A3.52,3.52,0,0,1,142.76,227.36Zm3.11-4.92a2.12,2.12,0,1,0,.7,2.95A2.06,2.06,0,0,0,145.87,222.44Z" style="fill:#263238"></path><path d="M144.49,218.29l.84-1.32,4.64,2.94,1.82-2.87,1.08.68-2.66,4.2Z" style="fill:#263238"></path><path d="M150.19,215.62a3.71,3.71,0,1,1,4.94-1.25A3.49,3.49,0,0,1,150.19,215.62Zm3.12-4.91a2.12,2.12,0,1,0,.7,2.95A2.06,2.06,0,0,0,153.31,210.71Z" style="fill:#263238"></path><path d="M160,206.54l-2.29.09,0,.07-.73,1.15,1.59,1-.84,1.32-5.72-3.62,1.57-2.48c1-1.53,2.37-2,3.65-1.17a2.21,2.21,0,0,1,1.06,2.32l2.65-.12Zm-5.43-1.7-.68,1.08,2,1.26.69-1.08c.51-.81.39-1.46-.23-1.85S155.05,204,154.53,204.84Z" style="fill:#263238"></path><path d="M151,226.89a31.46,31.46,0,0,1-2.57,5,30.26,30.26,0,0,1-3,4.73,61.29,61.29,0,0,1,5.59-9.73Z" style="fill:#263238"></path></g></svg>
